<svg xmlns="http://www.w3.org/2000/svg" width="146" height="418" viewBox="0 0 146 418"><defs><style>.a{font-size:26px;font-family:OpenSans-ExtraBold, Open Sans;font-weight:800;}.a,.c,.d,.f{letter-spacing:0.02em;}.b{fill:#d74430;}.c{fill:#fff;font-size:15px;}.c,.d,.f{font-family:OpenSans-Light, Open Sans;font-weight:300;}.d{font-size:14px;}.e,.g{fill:none;stroke-width:5px;}.e{stroke:#d74430;}.f{font-size:25px;}.g{stroke:#000;}</style></defs><g transform="translate(-192 -2449)"><g transform="translate(0 8.723)"><text class="a" transform="translate(281 2468.277)"><tspan x="-30.989" y="0">01</tspan></text><g transform="translate(192 2479.277)"><path d="M0,0H146V41.6H0Z"/><rect class="b" width="71.308" height="41.596" transform="translate(73.504)"/><text class="c" transform="translate(117 25.583)"><tspan x="-87.105" y="0">DOWNLOAD</tspan></text></g><text class="d" transform="translate(204 2539.277)"><tspan x="0" y="0">Baixe o jogo e crie</tspan><tspan x="0" y="19">o nome de usuário</tspan></text><line class="e" x2="60" transform="translate(235.5 2564.777)"/></g><g transform="translate(0 -1)"><text class="f" transform="translate(280 2620)"><tspan x="-29.04" y="0">02</tspan></text><text class="d" transform="translate(265 2691)"><tspan x="-31.181" y="0">Selecione</tspan><tspan x="-45.027" y="19">o tipo de jogo</tspan></text><g transform="translate(192 2631)"><rect width="146" height="41.6"/><text class="c" transform="translate(110 26.844)"><tspan x="-75.005" y="0">ESCOLHER</tspan></text></g><path class="g" d="M23.833,0h60" transform="translate(211.667 2717.5)"/></g><g transform="translate(0 -20)"><g transform="translate(192 2794)"><rect width="146" height="41.6"/><text class="c" transform="translate(109 27.118)"><tspan x="-73.211" y="0">EXPLORAR</tspan></text></g><text class="f" transform="translate(279 2782)"><tspan x="-29.04" y="0">03</tspan></text><text class="d" transform="translate(265 2856)"><tspan x="-34.982" y="0">Conquiste </tspan><tspan x="-28.084" y="19">a galáxia</tspan></text><line class="g" x2="60" transform="translate(235 2884.5)"/></g></g></svg>